TITLE ""
FILE "1Q_t_1739-1748.mp3" MP3
  TRACK 01 AUDIO
    TITLE "1Q_t_1739-1748_01"
    INDEX 01 00:00:00
  TRACK 02 AUDIO
    TITLE "1Q_t_1739-1748_02"
    INDEX 01 00:01:25
  TRACK 03 AUDIO
    TITLE "1Q_t_1739-1748_03"
    INDEX 01 00:01:33
  TRACK 04 AUDIO
    TITLE "1Q_t_1739-1748_04"
    INDEX 01 00:02:37
  TRACK 05 AUDIO
    TITLE "1Q_t_1739-1748_05"
    INDEX 01 00:02:44
  TRACK 06 AUDIO
    TITLE "1Q_t_1739-1748_06"
    INDEX 01 00:06:66
  TRACK 07 AUDIO
    TITLE "1Q_t_1739-1748_07"
    INDEX 01 00:07:38
  TRACK 08 AUDIO
    TITLE "1Q_t_1739-1748_08"
    INDEX 01 00:08:45
  TRACK 09 AUDIO
    TITLE "1Q_t_1739-1748_09"
    INDEX 01 00:08:57
  TRACK 10 AUDIO
    TITLE "1Q_t_1739-1748_10"
    INDEX 01 00:10:54
  TRACK 11 AUDIO
    TITLE "1Q_t_1739-1748_11"
    INDEX 01 00:10:62
  TRACK 12 AUDIO
    TITLE "1Q_t_1739-1748_12"
    INDEX 01 00:16:68
  TRACK 13 AUDIO
    TITLE "1Q_t_1739-1748_13"
    INDEX 01 00:17:40
  TRACK 14 AUDIO
    TITLE "1Q_t_1739-1748_14"
    INDEX 01 00:18:71
  TRACK 15 AUDIO
    TITLE "1Q_t_1739-1748_15"
    INDEX 01 00:19:06
  TRACK 16 AUDIO
    TITLE "1Q_t_1739-1748_16"
    INDEX 01 00:21:22
  TRACK 17 AUDIO
    TITLE "1Q_t_1739-1748_17"
    INDEX 01 00:21:32
  TRACK 18 AUDIO
    TITLE "1Q_t_1739-1748_18"
    INDEX 01 00:28:24
  TRACK 19 AUDIO
    TITLE "1Q_t_1739-1748_19"
    INDEX 01 00:28:71
  TRACK 20 AUDIO
    TITLE "1Q_t_1739-1748_20"
    INDEX 01 00:30:02
  TRACK 21 AUDIO
    TITLE "1Q_t_1739-1748_21"
    INDEX 01 00:30:11
  TRACK 22 AUDIO
    TITLE "1Q_t_1739-1748_22"
    INDEX 01 00:33:02
  TRACK 23 AUDIO
    TITLE "1Q_t_1739-1748_23"
    INDEX 01 00:33:10
  TRACK 24 AUDIO
    TITLE "1Q_t_1739-1748_24"
    INDEX 01 00:37:33
  TRACK 25 AUDIO
    TITLE "1Q_t_1739-1748_25"
    INDEX 01 00:38:03
  TRACK 26 AUDIO
    TITLE "1Q_t_1739-1748_26"
    INDEX 01 00:39:16
  TRACK 27 AUDIO
    TITLE "1Q_t_1739-1748_27"
    INDEX 01 00:39:26
  TRACK 28 AUDIO
    TITLE "1Q_t_1739-1748_28"
    INDEX 01 00:40:57
  TRACK 29 AUDIO
    TITLE "1Q_t_1739-1748_29"
    INDEX 01 00:40:67
  TRACK 30 AUDIO
    TITLE "1Q_t_1739-1748_30"
    INDEX 01 00:46:57
  TRACK 31 AUDIO
    TITLE "1Q_t_1739-1748_31"
    INDEX 01 00:47:31
  TRACK 32 AUDIO
    TITLE "1Q_t_1739-1748_32"
    INDEX 01 00:48:39
  TRACK 33 AUDIO
    TITLE "1Q_t_1739-1748_33"
    INDEX 01 00:48:49
  TRACK 34 AUDIO
    TITLE "1Q_t_1739-1748_34"
    INDEX 01 00:50:53
  TRACK 35 AUDIO
    TITLE "1Q_t_1739-1748_35"
    INDEX 01 00:50:61
  TRACK 36 AUDIO
    TITLE "1Q_t_1739-1748_36"
    INDEX 01 00:56:11
  TRACK 37 AUDIO
    TITLE "1Q_t_1739-1748_37"
    INDEX 01 00:56:60
  TRACK 38 AUDIO
    TITLE "1Q_t_1739-1748_38"
    INDEX 01 00:58:08
  TRACK 39 AUDIO
    TITLE "1Q_t_1739-1748_39"
    INDEX 01 00:58:16
  TRACK 40 AUDIO
    TITLE "1Q_t_1739-1748_40"
    INDEX 01 01:00:12
  TRACK 41 AUDIO
    TITLE "1Q_t_1739-1748_41"
    INDEX 01 01:00:18
  TRACK 42 AUDIO
    TITLE "1Q_t_1739-1748_42"
    INDEX 01 01:06:33
  TRACK 43 AUDIO
    TITLE "1Q_t_1739-1748_43"
    INDEX 01 01:07:05
  TRACK 44 AUDIO
    TITLE "1Q_t_1739-1748_44"
    INDEX 01 01:08:36
  TRACK 45 AUDIO
    TITLE "1Q_t_1739-1748_45"
    INDEX 01 01:08:43
  TRACK 46 AUDIO
    TITLE "1Q_t_1739-1748_46"
    INDEX 01 01:10:54
  TRACK 47 AUDIO
    TITLE "1Q_t_1739-1748_47"
    INDEX 01 01:10:64
  TRACK 48 AUDIO
    TITLE "1Q_t_1739-1748_48"
    INDEX 01 01:15:06
  TRACK 49 AUDIO
    TITLE "1Q_t_1739-1748_49"
    INDEX 01 01:15:53
  TRACK 50 AUDIO
    TITLE "1Q_t_1739-1748_50"
    INDEX 01 01:16:55
  TRACK 51 AUDIO
    TITLE "1Q_t_1739-1748_51"
    INDEX 01 01:16:64
  TRACK 52 AUDIO
    TITLE "1Q_t_1739-1748_52"
    INDEX 01 01:18:50
  TRACK 53 AUDIO
    TITLE "1Q_t_1739-1748_53"
    INDEX 01 01:18:57
  TRACK 54 AUDIO
    TITLE "1Q_t_1739-1748_54"
    INDEX 01 01:23:72
  TRACK 55 AUDIO
    TITLE "1Q_t_1739-1748_55"
    INDEX 01 01:24:44
  TRACK 56 AUDIO
    TITLE "1Q_t_1739-1748_56"
    INDEX 01 01:25:46
  TRACK 57 AUDIO
    TITLE "1Q_t_1739-1748_57"
    INDEX 01 01:25:71
  TRACK 58 AUDIO
    TITLE "1Q_t_1739-1748_58"
    INDEX 01 01:27:07
  TRACK 59 AUDIO
    TITLE "1Q_t_1739-1748_59"
    INDEX 01 01:27:17
  TRACK 60 AUDIO
    TITLE "1Q_t_1739-1748_60"
    INDEX 01 01:32:14
